<svg width="18" height="14" viewBox="0 0 18 14" fill="none" xmlns="http://www.w3.org/2000/svg">
<path d="M16 1H2C1.4375 1 1 1.46875 1 2V12C1 12.5625 1.4375 13 2 13H16C16.5312 13 17 12.5625 17 12V2C17 1.46875 16.5312 1 16 1ZM2 0H16C17.0938 0 18 0.90625 18 2V12C18 13.125 17.0938 14 16 14H2C0.875 14 0 13.125 0 12V2C0 0.90625 0.875 0 2 0ZM9.5 4C9.75 4 10 4.25 10 4.5V9.5C10 9.78125 9.75 10 9.5 10C9.21875 10 9 9.78125 9 9.5V4.5C9 4.25 9.21875 4 9.5 4ZM11 4.5C11 4.25 11.2188 4 11.5 4H14.5C14.75 4 15 4.25 15 4.5C15 4.78125 14.75 5 14.5 5H12V6.5H14C14.25 6.5 14.5 6.75 14.5 7C14.5 7.28125 14.25 7.5 14 7.5H12V9.5C12 9.78125 11.75 10 11.5 10C11.2188 10 11 9.78125 11 9.5V7V4.5ZM4 7C4 8.125 4.875 9 6 9C6.34375 9 6.6875 8.90625 7 8.75V7.75H5.75C5.46875 7.75 5.25 7.53125 5.25 7.25C5.25 7 5.46875 6.75 5.75 6.75H7.5C7.75 6.75 8 7 8 7.25V9C8 9.15625 7.90625 9.3125 7.78125 9.40625C7.28125 9.78125 6.65625 10 6 10C4.34375 10 3 8.65625 3 7C3 5.34375 4.34375 4 6 4C6.65625 4 7.28125 4.25 7.78125 4.625C8 4.78125 8.0625 5.09375 7.875 5.3125C7.71875 5.53125 7.40625 5.59375 7.1875 5.40625C6.84375 5.15625 6.4375 5 6 5C4.875 5 4 5.90625 4 7Z" fill="#8F9195"/>
</svg>
