<svg width="14" height="16" viewBox="0 0 14 16" fill="none" xmlns="http://www.w3.org/2000/svg">
<path d="M11.875 2.125C10.9688 1.21875 9.5 1.21875 8.59375 2.125L2.59375 8.125C1.125 9.59375 1.125 11.9375 2.59375 13.4062C4.0625 14.875 6.40625 14.875 7.875 13.4062L12.625 8.65625C12.8125 8.46875 13.1562 8.46875 13.3438 8.65625C13.5312 8.84375 13.5312 9.1875 13.3438 9.375L8.59375 14.125C6.75 15.9688 3.71875 15.9688 1.875 14.125C0.03125 12.25 0.03125 9.25 1.875 7.40625L7.875 1.40625C9.1875 0.125 11.2812 0.125 12.5938 1.40625C13.875 2.71875 13.875 4.8125 12.5938 6.125L6.84375 11.875C5.96875 12.75 4.5 12.6562 3.71875 11.6875C3.0625 10.8438 3.125 9.65625 3.875 8.90625L8.625 4.15625C8.8125 3.96875 9.15625 3.96875 9.34375 4.15625C9.53125 4.34375 9.53125 4.6875 9.34375 4.875L4.59375 9.625C4.1875 10 4.15625 10.625 4.5 11.0625C4.90625 11.5625 5.6875 11.625 6.125 11.1562L11.875 5.40625C12.7812 4.5 12.7812 3.03125 11.875 2.125Z" fill="#8F9195"/>
</svg>
