<svg width="16" height="18" viewBox="0 0 16 18" fill="none" xmlns="http://www.w3.org/2000/svg">
<path d="M15 9C15 6.5 13.6562 4.21875 11.5 2.96875C9.3125 1.6875 6.65625 1.6875 4.5 2.96875C2.3125 4.21875 1 6.5 1 9C1 11.5312 2.3125 13.8125 4.5 15.0625C6.65625 16.3438 9.3125 16.3438 11.5 15.0625C13.6562 13.8125 15 11.5312 15 9ZM0 9C0 6.15625 1.5 3.53125 4 2.09375C6.46875 0.65625 9.5 0.65625 12 2.09375C14.4688 3.53125 16 6.15625 16 9C16 11.875 14.4688 14.5 12 15.9375C9.5 17.375 6.46875 17.375 4 15.9375C1.5 14.5 0 11.875 0 9ZM5.125 11.1875C5.6875 11.8438 6.625 12.5 8 12.5C9.34375 12.5 10.3125 11.8438 10.8438 11.1875C11.0312 10.9688 11.3438 10.9688 11.5625 11.125C11.7812 11.3125 11.7812 11.625 11.625 11.8438C10.9062 12.6562 9.71875 13.5 8 13.5C6.25 13.5 5.0625 12.6562 4.34375 11.8438C4.1875 11.625 4.1875 11.3125 4.40625 11.125C4.625 10.9688 4.9375 10.9688 5.125 11.1875ZM4.75 7.5C4.75 7.09375 5.09375 6.75 5.5 6.75C5.90625 6.75 6.25 7.09375 6.25 7.5C6.25 7.9375 5.90625 8.25 5.5 8.25C5.09375 8.25 4.75 7.9375 4.75 7.5ZM10.5 6.75C10.9062 6.75 11.25 7.09375 11.25 7.5C11.25 7.9375 10.9062 8.25 10.5 8.25C10.0938 8.25 9.75 7.9375 9.75 7.5C9.75 7.09375 10.0938 6.75 10.5 6.75Z" fill="#8F9195"/>
</svg>
